<?xml version="1.0" encoding="UTF-8" standalone="no"?>
<svg
   id="Logo_Base"
   data-name="Logo Base"
   viewBox="0 0 2018.5 561.07"
   version="1.1"
   sodipodi:docname="Artboard 13.svg"
   inkscape:version="1.1.1 (3bf5ae0d25, 2021-09-20)"
   xmlns:inkscape="http://www.inkscape.org/namespaces/inkscape"
   xmlns:sodipodi="http://sodipodi.sourceforge.net/DTD/sodipodi-0.dtd"
   xmlns="http://www.w3.org/2000/svg"
   xmlns:svg="http://www.w3.org/2000/svg">
  <sodipodi:namedview
     id="namedview11"
     pagecolor="#ffffff"
     bordercolor="#999999"
     borderopacity="1"
     inkscape:pageshadow="0"
     inkscape:pageopacity="0"
     inkscape:pagecheckerboard="0"
     showgrid="false"
     inkscape:zoom="0.5241516"
     inkscape:cx="1008.2961"
     inkscape:cy="281.40714"
     inkscape:window-width="3440"
     inkscape:window-height="1369"
     inkscape:window-x="2552"
     inkscape:window-y="-8"
     inkscape:window-maximized="1"
     inkscape:current-layer="Logo_Base" />
  <defs
     id="defs4">
    <style
       id="style2">
      .cls-1 {
        fill: #feffff;
      }

      .cls-2 {
        fill: #f68a29;
      }

      .cls-3 {
        fill: none;
        stroke: #f68a29;
        stroke-width: 11px;
      }
    </style>
    <pattern
       id="EMFhbasepattern"
       patternUnits="userSpaceOnUse"
       width="6"
       height="6"
       x="0"
       y="0" />
  </defs>
  <path
     style="fill:none;stroke:#f68a29;stroke-width:11.0494px;stroke-linecap:butt;stroke-linejoin:miter;stroke-miterlimit:4;stroke-dasharray:none;stroke-opacity:1"
     d="M 7.8640489,372.88123 H 1899.8006"
     id="path911" />
  <path
     style="fill:#feffff;fill-opacity:1;fill-rule:nonzero;stroke:none;stroke-width:0.753367"
     d="M 1764.0027,487.06753 V 258.94756 l 234.9007,113.93367 z"
     id="path913" />
  <path
     style="fill:#f68a29;fill-opacity:1;fill-rule:nonzero;stroke:none;stroke-width:0.753367"
     d="M 1987.1709,372.88123 1768.9952,267.03155 v 211.952 z m 23.465,0 -251.6258,122.2703 V 250.86357 Z"
     id="path915" />
  <path
     style="fill:none;stroke:none;stroke-width:0.753367"
     d="M 1987.1709,372.88123 1768.9952,267.03155 v 211.952 l 218.1757,-106.10232 m 23.465,0 -251.6258,122.2703 V 250.86357 l 251.6258,122.01766"
     id="path917" />
  <path
     style="fill:#ffffff;fill-opacity:1;fill-rule:nonzero;stroke:none;stroke-width:0.753367"
     d="m 95.483761,138.9509 c -14.728132,87.15547 -14.728132,87.15547 -14.728132,87.15547 -2.246658,12.63123 -3.494747,23.99934 -3.494747,34.35694 0,23.74672 5.491803,42.1883 16.725105,55.32478 15.976213,19.45209 44.683573,29.30445 85.872323,29.30445 40.93908,0 72.89159,-9.85236 95.60781,-29.30445 22.4666,-19.45209 37.44432,-49.26179 44.1843,-89.68172 14.7281,-87.15547 14.7281,-87.15547 14.7281,-87.15547 1.99703,-10.86285 2.99555,-21.22047 2.99555,-30.8202 0,-57.093152 -34.19915,-85.892353 -102.34783,-85.892353 -79.63158,0 -126.06253,38.904185 -139.542479,116.712553 0,0 0,0 0,0 z m 60.160509,108.12332 c 0,-7.83138 0.49928,-15.41011 1.49777,-22.73622 14.47852,-83.61874 14.47852,-83.61874 14.47852,-83.61874 5.74141,-33.34643 23.21548,-50.272278 52.42205,-50.777529 23.21548,0 34.69838,11.620729 34.69838,35.114819 0,4.79987 -0.2496,9.85236 -1.24816,15.66271 -14.47846,83.61874 -14.47846,83.61874 -14.47846,83.61874 -3.24513,20.46259 -9.23623,34.35694 -17.72366,41.93568 -8.48736,7.57873 -19.97026,11.36811 -33.94949,11.36811 -23.96438,0 -35.69695,-10.35762 -35.69695,-30.56757 0,0 0,0 0,0 z"
     id="path919" />
  <path
     style="fill:#ffffff;fill-opacity:1;fill-rule:nonzero;stroke:none;stroke-width:0.753367"
     d="m 488.64912,218.78025 c -9.98515,57.85103 -9.98515,57.85103 -9.98515,57.85103 -1.24815,6.82086 -1.74741,12.88385 -1.74741,18.69422 0,33.09381 19.22143,49.76704 57.66425,49.76704 16.97477,0 32.20211,-5.81037 45.43245,-16.92585 2.24666,-49.26179 2.24666,-49.26179 2.24666,-49.26179 -4.99259,2.77887 -10.98366,4.29463 -17.47402,4.29463 -8.48739,0 -12.73108,-3.78938 -12.73108,-11.62073 0,-1.51575 0.24964,-3.28413 0.49926,-4.79987 11.48292,-67.19814 11.48292,-67.19814 11.48292,-67.19814 1.24816,-9.09448 1.99704,-18.69421 1.99704,-29.05182 0,-10.61023 -2.24666,-19.95735 -7.23923,-28.04133 -7.48887,-12.63122 -24.214,-19.19947 -49.67614,-19.19947 -25.46213,0 -46.68058,10.61024 -63.4057,31.8307 4.74295,-25.51509 4.74295,-25.51509 4.74295,-25.51509 -67.15017,0 -67.15017,0 -67.15017,0 -36.19616,209.42576 -36.19616,209.42576 -36.19616,209.42576 72.39234,0 72.39234,0 72.39234,0 23.71474,-138.9435 23.71474,-138.9435 23.71474,-138.9435 7.73849,-9.09447 17.47402,-13.64173 29.20657,-13.64173 11.73255,0 17.72365,6.31562 17.72365,18.69422 0,3.78938 -0.49926,8.3366 -1.49777,13.64172 0,0 0,0 0,0 z"
     id="path921" />
  <path
     style="fill:#ffffff;fill-opacity:1;fill-rule:nonzero;stroke:none;stroke-width:0.753367"
     d="M 1023.1044,25.269843 H 736.53052 L 724.54834,93.225855 H 829.64206 L 787.45482,339.02954 h 77.1353 L 906.52775,93.225855 h 104.59445 z"
     id="path923" />
  <path
     style="fill:#ffffff;fill-opacity:1;fill-rule:nonzero;stroke:none;stroke-width:0.753367"
     d="m 1082.0168,271.5788 c 0,-1.51575 0.2496,-3.28413 0.4992,-4.79987 23.7148,-137.17515 23.7148,-137.17515 23.7148,-137.17515 -72.1428,0 -72.1428,0 -72.1428,0 -25.4621,147.0275 -25.4621,147.0275 -25.4621,147.0275 -1.2482,7.07349 -1.7474,15.15747 -1.7474,24.25197 0,9.09449 2.4963,17.68372 7.7385,25.76769 7.4889,12.3786 24.2139,18.4416 49.9258,18.4416 17.2244,0 32.2021,-5.81037 45.6822,-16.92585 1.9967,-49.26179 1.9967,-49.26179 1.9967,-49.26179 -4.9924,2.77887 -10.9836,4.29463 -17.4738,4.29463 -8.4874,0 -12.7311,-3.78938 -12.7311,-11.62073 0,0 0,0 0,0 z M 1077.773,89.941731 c 17.2244,0 29.9555,-4.294613 38.1932,-12.631223 7.9881,-8.589235 11.9822,-21.978345 11.9822,-40.167309 0,-21.473091 -11.7324,-32.3359463 -35.6969,-32.3359463 -16.9747,0 -29.4561,4.2946163 -37.6939,12.8838483 -7.9881,8.589243 -11.9821,22.230961 -11.9821,40.925187 0,20.715211 11.7325,31.325443 35.1975,31.325443 0,0 0,0 0,0 z"
     id="path925" />
  <path
     style="fill:#ffffff;fill-opacity:1;fill-rule:nonzero;stroke:none;stroke-width:0.753367"
     d="m 1477.4288,271.5788 c 0,-1.51575 0,-3.28413 0.2496,-4.79987 10.7341,-64.92451 10.7341,-64.92451 10.7341,-64.92451 1.4978,-8.84187 2.2465,-18.4416 2.2465,-29.30445 0,-10.61024 -2.9954,-20.46261 -8.7369,-29.55708 -8.4874,-13.13647 -26.9599,-19.70472 -55.4175,-19.70472 -28.4578,0 -51.174,12.63124 -68.1487,37.64106 -4.9926,-25.00982 -25.9615,-37.64106 -62.9065,-37.64106 -25.9614,0 -47.6791,10.86286 -64.6538,32.33595 4.7429,-26.02034 4.7429,-26.02034 4.7429,-26.02034 -67.1501,0 -67.1501,0 -67.1501,0 -36.1963,209.42576 -36.1963,209.42576 -36.1963,209.42576 72.3925,0 72.3925,0 72.3925,0 23.7146,-138.18562 23.7146,-138.18562 23.7146,-138.18562 8.7371,-9.59973 19.2215,-14.39961 31.4532,-14.39961 15.2275,0 22.966,7.07351 22.966,20.96785 0,5.30511 -0.4994,10.3576 -1.2483,15.66272 -19.9702,115.95466 -19.9702,115.95466 -19.9702,115.95466 72.1427,0 72.1427,0 72.1427,0 22.9659,-134.64889 22.9659,-134.64889 22.9659,-134.64889 8.4873,-11.87334 20.22,-17.93634 35.1976,-17.93634 14.7281,0 22.217,7.07351 22.217,20.96785 0,5.30511 -0.4993,10.3576 -1.2482,15.66272 -8.9865,53.5564 -8.9865,53.5564 -8.9865,53.5564 -0.9986,6.82086 -1.7476,12.88385 -1.7476,18.69422 0,33.09381 19.4711,49.76704 57.9139,49.76704 16.9749,0 32.2022,-5.81037 45.4325,-16.92585 2.2467,-49.26179 2.2467,-49.26179 2.2467,-49.26179 -5.2422,2.77887 -10.9837,4.29463 -17.4741,4.29463 -8.4873,0 -12.731,-3.78938 -12.731,-11.62073 0,0 0,0 0,0 z"
     id="path927" />
  <path
     style="fill:#ffffff;fill-opacity:1;fill-rule:nonzero;stroke:none;stroke-width:0.753367"
     d="m 1729.3042,263.74743 c -70.3953,-1.01051 -70.3953,-1.01051 -70.3953,-1.01051 -0.9985,5.81038 -3.7444,10.86286 -8.4873,15.15749 -4.9927,4.54723 -10.734,6.56825 -17.4741,6.56825 -18.4725,0 -27.7087,-7.83138 -27.7087,-23.99935 0,-2.77888 0.2496,-6.06299 0.9983,-9.34711 1.4979,-10.10497 1.4979,-10.10497 1.4979,-10.10497 129.807,0 129.807,0 129.807,0 4.9926,-31.07282 4.9926,-31.07282 4.9926,-31.07282 1.2481,-7.32613 1.7474,-14.39961 1.7474,-20.71523 0,-44.20929 -28.4577,-66.18763 -85.3731,-66.18763 -33.4502,0 -60.4101,7.32612 -80.6301,22.23096 -20.2199,15.15748 -32.7014,36.37795 -37.6939,64.41926 -8.737,54.06166 -8.737,54.06166 -8.737,54.06166 -1.2481,6.56824 -1.7474,12.88385 -1.7474,18.69421 0,41.68305 29.4561,62.6509 88.3685,62.6509 64.6539,0 101.599,-27.28347 110.8352,-81.34511 0,0 0,0 0,0 z m -117.3255,-49.26179 c 2.7459,-11.11547 7.2392,-19.45208 13.9793,-25.00984 6.4903,-5.3051 13.9791,-8.08398 21.9673,-8.08398 8.2378,0 13.9792,2.021 17.7236,6.56825 3.7444,4.2946 5.4918,8.58924 5.4918,12.63122 0,4.29462 -0.4992,8.84186 -1.7474,13.89435 -57.4146,0 -57.4146,0 -57.4146,0 z"
     id="path929" />
  <path
     style="fill:#fd8a23;fill-opacity:1;fill-rule:nonzero;stroke:none;stroke-width:0.753367"
     d="M 191.09161,532.28734 V 416.83792 h 43.43542 V 401.42781 H 130.43181 v 15.41011 h 43.18573 v 115.44942 z"
     id="path931" />
  <path
     style="fill:#fd8a23;fill-opacity:1;fill-rule:nonzero;stroke:none;stroke-width:0.753367"
     d="m 269.97429,532.28734 c 0,-58.10365 0,-58.10365 0,-58.10365 20.21994,0 20.21994,0 20.21994,0 4.49331,0 7.48885,0.25263 9.48588,0.50525 2.74592,0.75787 5.49185,1.76836 7.98813,3.53675 2.74591,1.76836 5.49183,4.54724 8.73702,8.84184 3.49479,4.042 7.48884,10.105 12.73105,17.93636 17.22439,27.28345 17.22439,27.28345 17.22439,27.28345 21.96733,0 21.96733,0 21.96733,0 -22.96585,-35.62007 -22.96585,-35.62007 -22.96585,-35.62007 -4.49331,-7.07348 -9.23627,-12.88384 -14.22883,-17.4311 -2.4963,-2.2736 -5.9911,-4.29461 -10.48442,-6.56824 12.48145,-1.76835 21.7177,-5.81035 27.95843,-12.12598 5.99109,-6.3156 8.98664,-14.14695 8.98664,-23.49407 0,-7.32612 -1.74741,-13.89436 -5.49184,-19.70472 -3.74444,-6.06299 -8.48737,-10.10499 -14.72809,-12.3786 -5.9911,-2.52624 -14.97773,-3.53675 -26.46066,-3.53675 -58.41311,0 -58.41311,0 -58.41311,0 0,130.85953 0,130.85953 0,130.85953 17.47399,0 17.47399,0 17.47399,0 z m 0,-116.45992 c 41.43838,0 41.43838,0 41.43838,0 9.73552,0 16.97475,2.02099 21.46808,6.063 4.49332,3.78935 6.73997,8.84185 6.73997,15.15746 0,4.29461 -1.24815,8.08399 -3.49481,11.62073 -2.24665,3.78937 -5.74145,6.31561 -10.23478,8.08399 -4.49332,1.51575 -10.73403,2.27362 -18.47252,2.27362 -37.44432,0 -37.44432,0 -37.44432,0 0,-43.1988 0,-43.1988 0,-43.1988 z"
     id="path933" />
  <path
     style="fill:#fd8a23;fill-opacity:1;fill-rule:nonzero;stroke:none;stroke-width:0.753367"
     d="m 388.79759,532.28734 c 14.47848,-39.66204 14.47848,-39.66204 14.47848,-39.66204 54.91832,0 54.91832,0 54.91832,0 15.22736,39.66204 15.22736,39.66204 15.22736,39.66204 19.97032,0 19.97032,0 19.97032,0 -53.91983,-130.85953 -53.91983,-130.85953 -53.91983,-130.85953 -18.72215,0 -18.72215,0 -18.72215,0 -50.42502,130.85953 -50.42502,130.85953 -50.42502,130.85953 18.47252,0 18.47252,0 18.47252,0 z m 33.94952,-92.20797 c 2.99555,-8.33661 5.2422,-16.67322 6.98961,-25.00983 1.99703,7.0735 5.24221,16.16799 9.23627,27.03084 13.72958,36.37793 13.72958,36.37793 13.72958,36.37793 -44.43393,0 -44.43393,0 -44.43393,0 14.47847,-38.39894 14.47847,-38.39894 14.47847,-38.39894 z"
     id="path935" />
  <path
     style="fill:#fd8a23;fill-opacity:1;fill-rule:nonzero;stroke:none;stroke-width:0.753367"
     d="M 523.59714,532.28734 V 429.46913 l 69.14719,102.81821 h 17.72364 V 401.42781 H 593.74285 V 503.99339 L 524.84529,401.42781 h -17.72365 v 130.85953 z"
     id="path937" />
  <path
     style="fill:#fd8a23;fill-opacity:1;fill-rule:nonzero;stroke:none;stroke-width:0.753367"
     d="m 657.14855,532.28734 c 0,-53.30379 0,-53.30379 0,-53.30379 33.6999,0 33.6999,0 33.6999,0 18.47253,0 31.45322,-3.78937 38.44283,-11.62074 7.23924,-7.57872 10.73403,-16.92583 10.73403,-28.29394 0,-6.3156 -1.49777,-12.3786 -3.99405,-17.68371 -2.74592,-5.55774 -6.24072,-9.59974 -10.48441,-12.63122 -4.49331,-3.0315 -9.98515,-5.05251 -16.22587,-6.063 -4.74295,-1.01051 -11.23331,-1.26313 -19.97031,-1.26313 -49.67614,0 -49.67614,0 -49.67614,0 0,130.85953 0,130.85953 0,130.85953 17.47402,0 17.47402,0 17.47402,0 z m 0,-115.44942 c 33.45026,0 33.45026,0 33.45026,0 7.98813,0 13.47995,0.25262 16.22588,1.01049 4.49332,1.26312 8.23775,3.78937 10.98368,7.83136 2.74589,3.78936 4.24367,8.58925 4.24367,14.14698 0,7.57873 -2.24665,13.3891 -6.9896,17.4311 -4.74295,4.29461 -12.73107,6.3156 -23.96436,6.3156 -33.94953,0 -33.94953,0 -33.94953,0 0,-46.73553 0,-46.73553 0,-46.73553 z"
     id="path939" />
  <path
     style="fill:#fd8a23;fill-opacity:1;fill-rule:nonzero;stroke:none;stroke-width:0.753367"
     d="m 764.23934,501.21451 c 4.99252,10.35762 12.48139,18.44161 22.21691,24.25196 9.73553,6.063 20.71923,9.09449 33.20069,9.09449 11.48289,0 21.9673,-2.77887 31.95243,-8.08399 9.73553,-5.55772 17.47408,-13.3891 22.71627,-23.99933 5.4918,-10.35761 7.98808,-22.23096 7.98808,-35.62006 0,-12.88385 -2.49628,-24.7572 -7.48888,-35.11482 -5.24219,-10.3576 -12.48138,-18.18897 -22.2169,-23.99932 -9.73552,-5.81037 -20.71921,-8.84188 -32.951,-8.84188 -18.47257,0 -33.6999,6.31562 -45.18286,18.4416 -11.73252,12.3786 -17.72362,29.30446 -17.72362,51.03017 0,11.62072 2.49627,22.48358 7.48888,32.84118 z m 23.71468,-74.77687 c 8.98664,-8.3366 19.47106,-12.63121 31.95252,-12.63121 8.48735,0 16.4755,2.27361 23.21548,6.56822 6.98958,4.54725 12.23178,10.61024 15.97622,18.69422 3.49483,7.83137 5.49188,17.17848 5.49188,27.78871 0,16.92585 -4.24373,29.80969 -12.73107,39.15681 -8.48743,9.09448 -19.22144,13.64173 -32.4518,13.64173 -12.73106,0 -23.46508,-4.54725 -31.95243,-13.64173 -8.48744,-9.09448 -12.73108,-21.47309 -12.73108,-37.38843 0,-19.70472 4.49333,-33.59908 13.23028,-42.18832 z"
     id="path941" />
  <path
     style="fill:#fd8a23;fill-opacity:1;fill-rule:nonzero;stroke:none;stroke-width:0.753367"
     d="m 924.00174,532.28734 c 0,-58.10365 0,-58.10365 0,-58.10365 20.21995,0 20.21995,0 20.21995,0 4.49331,0 7.73847,0.25263 9.48593,0.50525 2.74585,0.75787 5.49179,1.76836 7.98805,3.53675 2.74595,1.76836 5.49189,4.54724 8.98665,8.84184 3.24523,4.042 7.48885,10.105 12.48147,17.93636 17.22431,27.28345 17.22431,27.28345 17.22431,27.28345 21.9674,0 21.9674,0 21.9674,0 -22.71621,-35.62007 -22.71621,-35.62007 -22.71621,-35.62007 -4.74298,-7.07348 -9.48596,-12.88384 -14.47845,-17.4311 -2.49634,-2.2736 -5.9911,-4.29461 -10.48441,-6.56824 12.48139,-1.76835 21.9673,-5.81035 27.95837,-12.12598 5.9911,-6.3156 8.9867,-14.14695 8.9867,-23.49407 0,-7.32612 -1.7474,-13.89436 -5.4919,-19.70472 -3.7444,-6.06299 -8.48738,-10.10499 -14.47849,-12.3786 -6.24067,-2.52624 -14.9777,-3.53675 -26.71021,-3.53675 -58.41315,0 -58.41315,0 -58.41315,0 0,130.85953 0,130.85953 0,130.85953 17.47399,0 17.47399,0 17.47399,0 z m 0,-116.45992 c 41.68805,0 41.68805,0 41.68805,0 9.73552,0 16.72511,2.02099 21.21842,6.063 4.49335,3.78935 6.73997,8.84185 6.73997,15.15746 0,4.29461 -0.99849,8.08399 -3.49485,11.62073 -2.24663,3.78937 -5.74138,6.31561 -10.2347,8.08399 -4.49332,1.51575 -10.73409,2.27362 -18.47256,2.27362 -37.44433,0 -37.44433,0 -37.44433,0 0,-43.1988 0,-43.1988 0,-43.1988 z"
     id="path943" />
  <path
     style="fill:#fd8a23;fill-opacity:1;fill-rule:nonzero;stroke:none;stroke-width:0.753367"
     d="M 1086.5102,532.28734 V 416.83792 h 43.4353 v -15.41011 h -104.0952 v 15.41011 h 43.4355 v 115.44942 z"
     id="path945" />
  <path
     style="fill:#fd8a23;fill-opacity:1;fill-rule:nonzero;stroke:none;stroke-width:0.753367"
     d="m 1138.4329,532.28734 c 14.2289,-39.66204 14.2289,-39.66204 14.2289,-39.66204 54.9183,0 54.9183,0 54.9183,0 15.477,39.66204 15.477,39.66204 15.477,39.66204 19.7207,0 19.7207,0 19.7207,0 -53.6703,-130.85953 -53.6703,-130.85953 -53.6703,-130.85953 -18.7222,0 -18.7222,0 -18.7222,0 -50.4249,130.85953 -50.4249,130.85953 -50.4249,130.85953 18.4725,0 18.4725,0 18.4725,0 z m 33.6998,-92.20797 c 2.9955,-8.33661 5.492,-16.67322 7.2394,-25.00983 1.9969,7.0735 4.9926,16.16799 9.2361,27.03084 13.7296,36.37793 13.7296,36.37793 13.7296,36.37793 -44.4339,0 -44.4339,0 -44.4339,0 14.2288,-38.39894 14.2288,-38.39894 14.2288,-38.39894 z"
     id="path947" />
  <path
     style="fill:#fd8a23;fill-opacity:1;fill-rule:nonzero;stroke:none;stroke-width:0.753367"
     d="M 1294.2012,532.28734 V 416.83792 h 43.4355 v -15.41011 h -104.0953 v 15.41011 h 43.4354 v 115.44942 z"
     id="path949" />
  <path
     style="fill:#fd8a23;fill-opacity:1;fill-rule:nonzero;stroke:none;stroke-width:0.753367"
     d="M 1375.8299,532.28734 V 401.42781 h -17.2244 v 130.85953 z"
     id="path951" />
  <path
     style="fill:#fd8a23;fill-opacity:1;fill-rule:nonzero;stroke:none;stroke-width:0.753367"
     d="m 1408.7808,501.21451 c 4.9926,10.35762 12.4816,18.44161 22.217,24.25196 9.7355,6.063 20.7193,9.09449 32.951,9.09449 11.4829,0 22.217,-2.77887 31.9525,-8.08399 9.9852,-5.55772 17.4741,-13.3891 22.9658,-23.99933 5.2423,-10.35761 7.9882,-22.23096 7.9882,-35.62006 0,-12.88385 -2.4963,-24.7572 -7.7385,-35.11482 -4.9925,-10.3576 -12.4815,-18.18897 -22.2169,-23.99932 -9.7356,-5.81037 -20.7194,-8.84188 -32.7015,-8.84188 -18.4724,0 -33.6998,6.31562 -45.4324,18.4416 -11.7326,12.3786 -17.474,29.30446 -17.474,51.03017 0,11.62072 2.4964,22.48358 7.4888,32.84118 z m 23.7147,-74.77687 c 8.7371,-8.3366 19.4711,-12.63121 31.7029,-12.63121 8.7371,0 16.4755,2.27361 23.4652,6.56822 6.9896,4.54725 12.2318,10.61024 15.7267,18.69422 3.7443,7.83137 5.4917,17.17848 5.4917,27.78871 0,16.92585 -4.2437,29.80969 -12.7311,39.15681 -8.2378,9.09448 -19.2213,13.64173 -32.2021,13.64173 -12.731,0 -23.465,-4.54725 -31.9524,-13.64173 -8.4875,-9.09448 -12.7311,-21.47309 -12.7311,-37.38843 0,-19.70472 4.2436,-33.59908 13.2302,-42.18832 z"
     id="path953" />
  <path
     style="fill:#fd8a23;fill-opacity:1;fill-rule:nonzero;stroke:none;stroke-width:0.753367"
     d="M 1565.7974,532.28734 V 429.46913 l 68.8975,102.81821 h 17.9733 V 401.42781 h -16.725 v 102.56558 l -69.1473,-102.56558 h -17.7237 v 130.85953 z"
     id="path955" />
</svg>
